<?xml version="1.0" encoding="UTF-8" standalone="no"?>
<!DOCTYPE svg PUBLIC "-//W3C//DTD SVG 1.1//EN"
 "http://www.w3.org/Graphics/SVG/1.1/DTD/svg11.dtd">
<!-- Generated by graphviz version 2.38.0 (20140413.2041)
 -->
<!-- Title: DebateWatch Pages: 1 -->
<svg width="1150pt" height="1252pt"
 viewBox="0.00 0.00 1149.60 1252.10" xmlns="http://www.w3.org/2000/svg" xmlns:xlink="http://www.w3.org/1999/xlink">
<g id="graph0" class="graph" transform="scale(1 1) rotate(0) translate(28.8 1223.3)">
<title>DebateWatch</title>
<polygon fill="white" stroke="none" points="-28.8,28.8 -28.8,-1223.3 1120.8,-1223.3 1120.8,28.8 -28.8,28.8"/>
<text text-anchor="middle" x="546" y="-1180.1" font-family="Arial BoldMT" font-size="13.00">Debate Watch &#45; Entity Relationship Diagram (ERD)</text>
<!-- m_Candidate -->
<g id="node1" class="node"><title>m_Candidate</title>
<path fill="none" stroke="black" d="M202,-1012C202,-1012 322,-1012 322,-1012 328,-1012 334,-1018 334,-1024 334,-1024 334,-1146 334,-1146 334,-1152 328,-1158 322,-1158 322,-1158 202,-1158 202,-1158 196,-1158 190,-1152 190,-1146 190,-1146 190,-1024 190,-1024 190,-1018 196,-1012 202,-1012"/>
<text text-anchor="start" x="234.925" y="-1144.7" font-family="Arial BoldMT" font-size="11.00">Candidate</text>
<polyline fill="none" stroke="black" points="190,-1139 334,-1139 "/>
<text text-anchor="start" x="197" y="-1125.5" font-family="ArialMT" font-size="10.00">campaign_name </text>
<text text-anchor="start" x="273.714" y="-1125.5" font-family="Arial ItalicMT" font-size="10.00" fill="#999999">string</text>
<text text-anchor="start" x="197" y="-1112.5" font-family="ArialMT" font-size="10.00">first_name </text>
<text text-anchor="start" x="246.463" y="-1112.5" font-family="Arial ItalicMT" font-size="10.00" fill="#999999">string ∗</text>
<text text-anchor="start" x="197" y="-1099.5" font-family="ArialMT" font-size="10.00">id </text>
<text text-anchor="start" x="207.562" y="-1099.5" font-family="Arial ItalicMT" font-size="10.00" fill="#999999">integer PK</text>
<text text-anchor="start" x="197" y="-1086.5" font-family="ArialMT" font-size="10.00">last_name </text>
<text text-anchor="start" x="245.916" y="-1086.5" font-family="Arial ItalicMT" font-size="10.00" fill="#999999">string ∗</text>
<text text-anchor="start" x="197" y="-1073.5" font-family="ArialMT" font-size="10.00">party </text>
<text text-anchor="start" x="222.01" y="-1073.5" font-family="Arial ItalicMT" font-size="10.00" fill="#999999">string ∗</text>
<text text-anchor="start" x="197" y="-1060.5" font-family="ArialMT" font-size="10.00">slogans </text>
<text text-anchor="start" x="234.246" y="-1060.5" font-family="Arial ItalicMT" font-size="10.00" fill="#999999">text</text>
<text text-anchor="start" x="197" y="-1047.5" font-family="ArialMT" font-size="10.00">social_urls </text>
<text text-anchor="start" x="247.02" y="-1047.5" font-family="Arial ItalicMT" font-size="10.00" fill="#999999">text</text>
<text text-anchor="start" x="197" y="-1034.5" font-family="ArialMT" font-size="10.00">support_groups </text>
<text text-anchor="start" x="269.271" y="-1034.5" font-family="Arial ItalicMT" font-size="10.00" fill="#999999">text</text>
<text text-anchor="start" x="197" y="-1021.5" font-family="ArialMT" font-size="10.00">url </text>
<text text-anchor="start" x="210.892" y="-1021.5" font-family="Arial ItalicMT" font-size="10.00" fill="#999999">string ∗ U</text>
</g>
<!-- m_Event -->
<g id="node2" class="node"><title>m_Event</title>
<path fill="none" stroke="black" d="M202,-346.5C202,-346.5 322,-346.5 322,-346.5 328,-346.5 334,-352.5 334,-358.5 334,-358.5 334,-415.5 334,-415.5 334,-421.5 328,-427.5 322,-427.5 322,-427.5 202,-427.5 202,-427.5 196,-427.5 190,-421.5 190,-415.5 190,-415.5 190,-358.5 190,-358.5 190,-352.5 196,-346.5 202,-346.5"/>
<text text-anchor="start" x="245.936" y="-414.2" font-family="Arial BoldMT" font-size="11.00">Event</text>
<polyline fill="none" stroke="black" points="190,-408.5 334,-408.5 "/>
<text text-anchor="start" x="197" y="-395.5" font-family="ArialMT" font-size="10.00">date </text>
<text text-anchor="start" x="219.241" y="-395.5" font-family="Arial ItalicMT" font-size="10.00" fill="#999999">date ∗</text>
<text text-anchor="start" x="197" y="-382.5" font-family="ArialMT" font-size="10.00">event_format </text>
<text text-anchor="start" x="258.143" y="-382.5" font-family="Arial ItalicMT" font-size="10.00" fill="#999999">string ∗</text>
<text text-anchor="start" x="197" y="-369.5" font-family="ArialMT" font-size="10.00">id </text>
<text text-anchor="start" x="207.562" y="-369.5" font-family="Arial ItalicMT" font-size="10.00" fill="#999999">integer PK</text>
<text text-anchor="start" x="197" y="-356.5" font-family="ArialMT" font-size="10.00">title </text>
<text text-anchor="start" x="215.34" y="-356.5" font-family="Arial ItalicMT" font-size="10.00" fill="#999999">string ∗ U</text>
</g>
<!-- m_Video -->
<g id="node11" class="node"><title>m_Video</title>
<path fill="none" stroke="black" d="M394.5,-340C394.5,-340 514.5,-340 514.5,-340 520.5,-340 526.5,-346 526.5,-352 526.5,-352 526.5,-422 526.5,-422 526.5,-428 520.5,-434 514.5,-434 514.5,-434 394.5,-434 394.5,-434 388.5,-434 382.5,-428 382.5,-422 382.5,-422 382.5,-352 382.5,-352 382.5,-346 388.5,-340 394.5,-340"/>
<text text-anchor="start" x="438.53" y="-420.7" font-family="Arial BoldMT" font-size="11.00">Video</text>
<polyline fill="none" stroke="black" points="382.5,-415 526.5,-415 "/>
<text text-anchor="start" x="389.5" y="-401.5" font-family="ArialMT" font-size="10.00">event_id </text>
<text text-anchor="start" x="430.086" y="-401.5" font-family="Arial ItalicMT" font-size="10.00" fill="#999999">integer ∗ FK</text>
<text text-anchor="start" x="389.5" y="-388.5" font-family="ArialMT" font-size="10.00">event_primary </text>
<text text-anchor="start" x="455.638" y="-388.5" font-family="Arial ItalicMT" font-size="10.00" fill="#999999">boolean</text>
<text text-anchor="start" x="389.5" y="-375.5" font-family="ArialMT" font-size="10.00">id </text>
<text text-anchor="start" x="400.062" y="-375.5" font-family="Arial ItalicMT" font-size="10.00" fill="#999999">integer PK</text>
<text text-anchor="start" x="389.5" y="-362.5" font-family="ArialMT" font-size="10.00">source_id </text>
<text text-anchor="start" x="435.638" y="-362.5" font-family="Arial ItalicMT" font-size="10.00" fill="#999999">string ∗ FK</text>
<text text-anchor="start" x="389.5" y="-349.5" font-family="ArialMT" font-size="10.00">source_type </text>
<text text-anchor="start" x="446.756" y="-349.5" font-family="Arial ItalicMT" font-size="10.00" fill="#999999">string ∗</text>
</g>
<!-- m_Event&#45;&gt;m_Video -->
<g id="edge5" class="edge"><title>m_Event&#45;&gt;m_Video</title>
<path fill="none" stroke="black" d="M334.206,-387C346.877,-387 360.156,-387 373.062,-387"/>
<polygon fill="black" stroke="black" points="373.38,-390.15 382.38,-387 373.38,-383.85 373.38,-390.15"/>
</g>
<!-- m_Owner -->
<g id="node3" class="node"><title>m_Owner</title>
<path fill="none" stroke="#999999" d="M12,-975C12,-975 132,-975 132,-975 138,-975 144,-981 144,-987 144,-987 144,-999 144,-999 144,-1005 138,-1011 132,-1011 132,-1011 12,-1011 12,-1011 6,-1011 0,-1005 0,-999 0,-999 0,-987 0,-987 0,-981 6,-975 12,-975"/>
<text text-anchor="start" x="53.8008" y="-989.2" font-family="Arial BoldMT" font-size="11.00" fill="#999999">Owner</text>
</g>
<!-- m_Owner&#45;&gt;m_Candidate -->
<g id="edge1" class="edge"><title>m_Owner&#45;&gt;m_Candidate</title>
<path fill="none" stroke="#999999" d="M120.969,-1016.47C141.835,-1026.69 166.719,-1038.86 189.682,-1050.1"/>
<polygon fill="none" stroke="#999999" points="122.768,-1012.68 110.143,-1011.18 119.075,-1020.22 122.768,-1012.68"/>
</g>
<!-- m_YoutubeChannel -->
<g id="node13" class="node"><title>m_YoutubeChannel</title>
<path fill="none" stroke="black" d="M202,-822.5C202,-822.5 322,-822.5 322,-822.5 328,-822.5 334,-828.5 334,-834.5 334,-834.5 334,-969.5 334,-969.5 334,-975.5 328,-981.5 322,-981.5 322,-981.5 202,-981.5 202,-981.5 196,-981.5 190,-975.5 190,-969.5 190,-969.5 190,-834.5 190,-834.5 190,-828.5 196,-822.5 202,-822.5"/>
<text text-anchor="start" x="219.526" y="-968.2" font-family="Arial BoldMT" font-size="11.00">YoutubeChannel</text>
<polyline fill="none" stroke="black" points="190,-962.5 334,-962.5 "/>
<text text-anchor="start" x="197" y="-949.5" font-family="ArialMT" font-size="10.00">description </text>
<text text-anchor="start" x="248.138" y="-949.5" font-family="Arial ItalicMT" font-size="10.00" fill="#999999">text</text>
<text text-anchor="start" x="197" y="-936.5" font-family="ArialMT" font-size="10.00">etag </text>
<text text-anchor="start" x="219.241" y="-936.5" font-family="Arial ItalicMT" font-size="10.00" fill="#999999">string</text>
<text text-anchor="start" x="197" y="-923.5" font-family="ArialMT" font-size="10.00">google_plus_user_id </text>
<text text-anchor="start" x="292.073" y="-923.5" font-family="Arial ItalicMT" font-size="10.00" fill="#999999">string</text>
<text text-anchor="start" x="197" y="-910.5" font-family="ArialMT" font-size="10.00">id </text>
<text text-anchor="start" x="207.562" y="-910.5" font-family="Arial ItalicMT" font-size="10.00" fill="#999999">string PK</text>
<text text-anchor="start" x="197" y="-897.5" font-family="ArialMT" font-size="10.00">owner_id </text>
<text text-anchor="start" x="240.359" y="-897.5" font-family="Arial ItalicMT" font-size="10.00" fill="#999999">integer ∗ FK</text>
<text text-anchor="start" x="197" y="-884.5" font-family="ArialMT" font-size="10.00">owner_type </text>
<text text-anchor="start" x="251.478" y="-884.5" font-family="Arial ItalicMT" font-size="10.00" fill="#999999">string ∗</text>
<text text-anchor="start" x="197" y="-871.5" font-family="ArialMT" font-size="10.00">published_at </text>
<text text-anchor="start" x="256.492" y="-871.5" font-family="Arial ItalicMT" font-size="10.00" fill="#999999">datetime</text>
<text text-anchor="start" x="197" y="-858.5" font-family="ArialMT" font-size="10.00">related_playlists </text>
<text text-anchor="start" x="271.482" y="-858.5" font-family="Arial ItalicMT" font-size="10.00" fill="#999999">text</text>
<text text-anchor="start" x="197" y="-845.5" font-family="ArialMT" font-size="10.00">thumbnails </text>
<text text-anchor="start" x="248.138" y="-845.5" font-family="Arial ItalicMT" font-size="10.00" fill="#999999">text</text>
<text text-anchor="start" x="197" y="-832.5" font-family="ArialMT" font-size="10.00">title </text>
<text text-anchor="start" x="215.34" y="-832.5" font-family="Arial ItalicMT" font-size="10.00" fill="#999999">string</text>
</g>
<!-- m_Owner&#45;&gt;m_YoutubeChannel -->
<g id="edge4" class="edge"><title>m_Owner&#45;&gt;m_YoutubeChannel</title>
<path fill="none" stroke="black" d="M110.593,-974.804C133.31,-963.808 163.001,-949.436 189.996,-936.369"/>
</g>
<!-- m_Rating -->
<g id="node4" class="node"><title>m_Rating</title>
<path fill="none" stroke="black" d="M761,-216C761,-216 900,-216 900,-216 906,-216 912,-222 912,-228 912,-228 912,-298 912,-298 912,-304 906,-310 900,-310 900,-310 761,-310 761,-310 755,-310 749,-304 749,-298 749,-298 749,-228 749,-228 749,-222 755,-216 761,-216"/>
<text text-anchor="start" x="812.602" y="-296.7" font-family="Arial BoldMT" font-size="11.00">Rating</text>
<polyline fill="none" stroke="black" points="749,-291 912,-291 "/>
<text text-anchor="start" x="756.5" y="-277.5" font-family="ArialMT" font-size="10.00">id </text>
<text text-anchor="start" x="767.062" y="-277.5" font-family="Arial ItalicMT" font-size="10.00" fill="#999999">integer PK</text>
<text text-anchor="start" x="756.332" y="-264.5" font-family="ArialMT" font-size="10.00">player_position </text>
<text text-anchor="start" x="826.376" y="-264.5" font-family="Arial ItalicMT" font-size="10.00" fill="#999999">decimal (10,4) ∗ U</text>
<text text-anchor="start" x="756.5" y="-251.5" font-family="ArialMT" font-size="10.00">rated_at </text>
<text text-anchor="start" x="795.973" y="-251.5" font-family="Arial ItalicMT" font-size="10.00" fill="#999999">datetime ∗</text>
<text text-anchor="start" x="756.5" y="-238.5" font-family="ArialMT" font-size="10.00">rating_number </text>
<text text-anchor="start" x="823.761" y="-238.5" font-family="Arial ItalicMT" font-size="10.00" fill="#999999">integer</text>
<text text-anchor="start" x="756.5" y="-225.5" font-family="ArialMT" font-size="10.00">submission_id </text>
<text text-anchor="start" x="822.643" y="-225.5" font-family="Arial ItalicMT" font-size="10.00" fill="#999999">integer ∗ FK</text>
</g>
<!-- m_RatingComment -->
<g id="node5" class="node"><title>m_RatingComment</title>
<path fill="none" stroke="black" d="M960,-222.5C960,-222.5 1080,-222.5 1080,-222.5 1086,-222.5 1092,-228.5 1092,-234.5 1092,-234.5 1092,-291.5 1092,-291.5 1092,-297.5 1086,-303.5 1080,-303.5 1080,-303.5 960,-303.5 960,-303.5 954,-303.5 948,-297.5 948,-291.5 948,-291.5 948,-234.5 948,-234.5 948,-228.5 954,-222.5 960,-222.5"/>
<text text-anchor="start" x="978.262" y="-290.2" font-family="Arial BoldMT" font-size="11.00">RatingComment</text>
<polyline fill="none" stroke="black" points="948,-284.5 1092,-284.5 "/>
<text text-anchor="start" x="955" y="-271.5" font-family="ArialMT" font-size="10.00">commented_at </text>
<text text-anchor="start" x="1023.93" y="-271.5" font-family="Arial ItalicMT" font-size="10.00" fill="#999999">datetime</text>
<text text-anchor="start" x="955" y="-258.5" font-family="ArialMT" font-size="10.00">id </text>
<text text-anchor="start" x="965.562" y="-258.5" font-family="Arial ItalicMT" font-size="10.00" fill="#999999">integer PK</text>
<text text-anchor="start" x="955" y="-245.5" font-family="ArialMT" font-size="10.00">message </text>
<text text-anchor="start" x="998.354" y="-245.5" font-family="Arial ItalicMT" font-size="10.00" fill="#999999">text</text>
<text text-anchor="start" x="955" y="-232.5" font-family="ArialMT" font-size="10.00">rating_id </text>
<text text-anchor="start" x="996.138" y="-232.5" font-family="Arial ItalicMT" font-size="10.00" fill="#999999">integer ∗ FK</text>
</g>
<!-- m_Rating&#45;&gt;m_RatingComment -->
<g id="edge6" class="edge"><title>m_Rating&#45;&gt;m_RatingComment</title>
<path fill="none" stroke="black" d="M912.105,-263C924.016,-263 936.215,-263 947.914,-263"/>
</g>
<!-- m_RatingScale -->
<g id="node6" class="node"><title>m_RatingScale</title>
<path fill="none" stroke="black" d="M394.5,-216C394.5,-216 514.5,-216 514.5,-216 520.5,-216 526.5,-222 526.5,-228 526.5,-228 526.5,-298 526.5,-298 526.5,-304 520.5,-310 514.5,-310 514.5,-310 394.5,-310 394.5,-310 388.5,-310 382.5,-304 382.5,-298 382.5,-298 382.5,-228 382.5,-228 382.5,-222 388.5,-216 394.5,-216"/>
<text text-anchor="start" x="422.844" y="-296.7" font-family="Arial BoldMT" font-size="11.00">RatingScale</text>
<polyline fill="none" stroke="black" points="382.5,-291 526.5,-291 "/>
<text text-anchor="start" x="389.5" y="-277.5" font-family="ArialMT" font-size="10.00">id </text>
<text text-anchor="start" x="400.062" y="-277.5" font-family="Arial ItalicMT" font-size="10.00" fill="#999999">integer PK</text>
<text text-anchor="start" x="389.5" y="-264.5" font-family="ArialMT" font-size="10.00">max </text>
<text text-anchor="start" x="411.17" y="-264.5" font-family="Arial ItalicMT" font-size="10.00" fill="#999999">integer ∗</text>
<text text-anchor="start" x="389.5" y="-251.5" font-family="ArialMT" font-size="10.00">min </text>
<text text-anchor="start" x="408.392" y="-251.5" font-family="Arial ItalicMT" font-size="10.00" fill="#999999">integer ∗</text>
<text text-anchor="start" x="389.5" y="-238.5" font-family="ArialMT" font-size="10.00">neutral </text>
<text text-anchor="start" x="422.854" y="-238.5" font-family="Arial ItalicMT" font-size="10.00" fill="#999999">integer ∗</text>
<text text-anchor="start" x="389.5" y="-225.5" font-family="ArialMT" font-size="10.00">step </text>
<text text-anchor="start" x="411.18" y="-225.5" font-family="Arial ItalicMT" font-size="10.00" fill="#999999">integer ∗ U</text>
</g>
<!-- m_RatingSubmission -->
<g id="node7" class="node"><title>m_RatingSubmission</title>
<path fill="none" stroke="black" d="M577,-216C577,-216 701,-216 701,-216 707,-216 713,-222 713,-228 713,-228 713,-298 713,-298 713,-304 707,-310 701,-310 701,-310 577,-310 577,-310 571,-310 565,-304 565,-298 565,-298 565,-228 565,-228 565,-222 571,-216 577,-216"/>
<text text-anchor="start" x="592.672" y="-296.7" font-family="Arial BoldMT" font-size="11.00">RatingSubmission</text>
<polyline fill="none" stroke="black" points="565,-291 713,-291 "/>
<text text-anchor="start" x="572" y="-277.5" font-family="ArialMT" font-size="10.00">id </text>
<text text-anchor="start" x="582.562" y="-277.5" font-family="Arial ItalicMT" font-size="10.00" fill="#999999">integer PK</text>
<text text-anchor="start" x="571.832" y="-264.5" font-family="ArialMT" font-size="10.00">player_started_at </text>
<text text-anchor="start" x="651.881" y="-264.5" font-family="Arial ItalicMT" font-size="10.00" fill="#999999">datetime ∗ U</text>
<text text-anchor="start" x="572" y="-251.5" font-family="ArialMT" font-size="10.00">scale_id </text>
<text text-anchor="start" x="611.468" y="-251.5" font-family="Arial ItalicMT" font-size="10.00" fill="#999999">integer</text>
<text text-anchor="start" x="572" y="-238.5" font-family="ArialMT" font-size="10.00">session_id </text>
<text text-anchor="start" x="622.029" y="-238.5" font-family="Arial ItalicMT" font-size="10.00" fill="#999999">string ∗ FK</text>
<text text-anchor="start" x="572" y="-225.5" font-family="ArialMT" font-size="10.00">video_id </text>
<text text-anchor="start" x="612.029" y="-225.5" font-family="Arial ItalicMT" font-size="10.00" fill="#999999">integer ∗ FK</text>
</g>
<!-- m_RatingScale&#45;&gt;m_RatingSubmission -->
<g id="edge10" class="edge"><title>m_RatingScale&#45;&gt;m_RatingSubmission</title>
<path fill="none" stroke="black" d="M526.582,-263C536.062,-263 545.849,-263 555.503,-263"/>
<polygon fill="black" stroke="black" points="555.705,-266.15 564.705,-263 555.705,-259.85 555.705,-266.15"/>
</g>
<!-- m_RatingSubmission&#45;&gt;m_Rating -->
<g id="edge7" class="edge"><title>m_RatingSubmission&#45;&gt;m_Rating</title>
<path fill="none" stroke="black" d="M713.266,-263C721.923,-263 730.833,-263 739.686,-263"/>
<polygon fill="black" stroke="black" points="739.877,-266.15 748.877,-263 739.877,-259.85 739.877,-266.15"/>
</g>
<!-- m_Request -->
<g id="node8" class="node"><title>m_Request</title>
<path fill="none" stroke="black" d="M579,-78.5C579,-78.5 699,-78.5 699,-78.5 705,-78.5 711,-84.5 711,-90.5 711,-90.5 711,-173.5 711,-173.5 711,-179.5 705,-185.5 699,-185.5 699,-185.5 579,-185.5 579,-185.5 573,-185.5 567,-179.5 567,-173.5 567,-173.5 567,-90.5 567,-90.5 567,-84.5 573,-78.5 579,-78.5"/>
<text text-anchor="start" x="616.515" y="-172.2" font-family="Arial BoldMT" font-size="11.00">Request</text>
<polyline fill="none" stroke="black" points="567,-166.5 711,-166.5 "/>
<text text-anchor="start" x="574" y="-153.5" font-family="ArialMT" font-size="10.00">id </text>
<text text-anchor="start" x="584.562" y="-153.5" font-family="Arial ItalicMT" font-size="10.00" fill="#999999">integer PK</text>
<text text-anchor="start" x="574" y="-140.5" font-family="ArialMT" font-size="10.00">referrer </text>
<text text-anchor="start" x="609.562" y="-140.5" font-family="Arial ItalicMT" font-size="10.00" fill="#999999">text</text>
<text text-anchor="start" x="574" y="-127.5" font-family="ArialMT" font-size="10.00">session_id </text>
<text text-anchor="start" x="624.029" y="-127.5" font-family="Arial ItalicMT" font-size="10.00" fill="#999999">string ∗ FK</text>
<text text-anchor="start" x="574" y="-114.5" font-family="ArialMT" font-size="10.00">ssl </text>
<text text-anchor="start" x="589" y="-114.5" font-family="Arial ItalicMT" font-size="10.00" fill="#999999">boolean</text>
<text text-anchor="start" x="574" y="-101.5" font-family="ArialMT" font-size="10.00">url </text>
<text text-anchor="start" x="587.892" y="-101.5" font-family="Arial ItalicMT" font-size="10.00" fill="#999999">text</text>
<text text-anchor="start" x="574" y="-88.5" font-family="ArialMT" font-size="10.00">uuid </text>
<text text-anchor="start" x="595.685" y="-88.5" font-family="Arial ItalicMT" font-size="10.00" fill="#999999">string ∗</text>
</g>
<!-- m_Session -->
<g id="node9" class="node"><title>m_Session</title>
<path fill="none" stroke="black" d="M394.5,-78.5C394.5,-78.5 514.5,-78.5 514.5,-78.5 520.5,-78.5 526.5,-84.5 526.5,-90.5 526.5,-90.5 526.5,-173.5 526.5,-173.5 526.5,-179.5 520.5,-185.5 514.5,-185.5 514.5,-185.5 394.5,-185.5 394.5,-185.5 388.5,-185.5 382.5,-179.5 382.5,-173.5 382.5,-173.5 382.5,-90.5 382.5,-90.5 382.5,-84.5 388.5,-78.5 394.5,-78.5"/>
<text text-anchor="start" x="432.933" y="-172.2" font-family="Arial BoldMT" font-size="11.00">Session</text>
<polyline fill="none" stroke="black" points="382.5,-166.5 526.5,-166.5 "/>
<text text-anchor="start" x="389.5" y="-153.5" font-family="ArialMT" font-size="10.00">browser </text>
<text text-anchor="start" x="427.845" y="-153.5" font-family="Arial ItalicMT" font-size="10.00" fill="#999999">text</text>
<text text-anchor="start" x="389.5" y="-140.5" font-family="ArialMT" font-size="10.00">id </text>
<text text-anchor="start" x="400.062" y="-140.5" font-family="Arial ItalicMT" font-size="10.00" fill="#999999">integer PK</text>
<text text-anchor="start" x="389.5" y="-127.5" font-family="ArialMT" font-size="10.00">ip_address </text>
<text text-anchor="start" x="441.199" y="-127.5" font-family="Arial ItalicMT" font-size="10.00" fill="#999999">string</text>
<text text-anchor="start" x="389.5" y="-114.5" font-family="ArialMT" font-size="10.00">language </text>
<text text-anchor="start" x="433.431" y="-114.5" font-family="Arial ItalicMT" font-size="10.00" fill="#999999">string</text>
<text text-anchor="start" x="389.5" y="-101.5" font-family="ArialMT" font-size="10.00">uuid </text>
<text text-anchor="start" x="411.185" y="-101.5" font-family="Arial ItalicMT" font-size="10.00" fill="#999999">string ∗ U</text>
<text text-anchor="start" x="389.5" y="-88.5" font-family="ArialMT" font-size="10.00">viewer_id </text>
<text text-anchor="start" x="434.52" y="-88.5" font-family="Arial ItalicMT" font-size="10.00" fill="#999999">integer FK</text>
</g>
<!-- m_Session&#45;&gt;m_RatingSubmission -->
<g id="edge8" class="edge"><title>m_Session&#45;&gt;m_RatingSubmission</title>
<path fill="none" stroke="black" d="M526.582,-183.023C539.215,-192.091 552.391,-201.549 565.075,-210.654"/>
<polygon fill="black" stroke="black" points="563.33,-213.278 572.478,-215.968 567.003,-208.16 563.33,-213.278"/>
</g>
<!-- m_Session&#45;&gt;m_Request -->
<g id="edge12" class="edge"><title>m_Session&#45;&gt;m_Request</title>
<path fill="none" stroke="black" d="M526.582,-132C536.8,-132 547.373,-132 557.753,-132"/>
<polygon fill="black" stroke="black" points="557.812,-135.15 566.812,-132 557.812,-128.85 557.812,-135.15"/>
</g>
<!-- m_Source -->
<g id="node10" class="node"><title>m_Source</title>
<path fill="none" stroke="#999999" d="M202,-534C202,-534 322,-534 322,-534 328,-534 334,-540 334,-546 334,-546 334,-558 334,-558 334,-564 328,-570 322,-570 322,-570 202,-570 202,-570 196,-570 190,-564 190,-558 190,-558 190,-546 190,-546 190,-540 196,-534 202,-534"/>
<text text-anchor="start" x="242.573" y="-548.2" font-family="Arial BoldMT" font-size="11.00" fill="#999999">Source</text>
</g>
<!-- m_Source&#45;&gt;m_Video -->
<g id="edge13" class="edge"><title>m_Source&#45;&gt;m_Video</title>
<path fill="none" stroke="black" d="M283.597,-533.634C306.877,-512.929 345.97,-478.326 380,-449 385.564,-444.205 391.387,-439.227 397.215,-434.27"/>
</g>
<!-- m_YoutubeVideo -->
<g id="node17" class="node"><title>m_YoutubeVideo</title>
<path fill="none" stroke="black" d="M392,-464C392,-464 517,-464 517,-464 523,-464 529,-470 529,-476 529,-476 529,-780 529,-780 529,-786 523,-792 517,-792 517,-792 392,-792 392,-792 386,-792 380,-786 380,-780 380,-780 380,-476 380,-476 380,-470 386,-464 392,-464"/>
<text text-anchor="start" x="418.544" y="-778.7" font-family="Arial BoldMT" font-size="11.00">YoutubeVideo</text>
<polyline fill="none" stroke="black" points="380,-773 529,-773 "/>
<text text-anchor="start" x="387.5" y="-759.5" font-family="ArialMT" font-size="10.00">caption </text>
<text text-anchor="start" x="422.524" y="-759.5" font-family="Arial ItalicMT" font-size="10.00" fill="#999999">boolean</text>
<text text-anchor="start" x="387.5" y="-746.5" font-family="ArialMT" font-size="10.00">category_id </text>
<text text-anchor="start" x="441.978" y="-746.5" font-family="Arial ItalicMT" font-size="10.00" fill="#999999">string</text>
<text text-anchor="start" x="387.5" y="-733.5" font-family="ArialMT" font-size="10.00">channel_id </text>
<text text-anchor="start" x="438.652" y="-733.5" font-family="Arial ItalicMT" font-size="10.00" fill="#999999">string ∗</text>
<text text-anchor="start" x="387.5" y="-720.5" font-family="ArialMT" font-size="10.00">definition </text>
<text text-anchor="start" x="430.308" y="-720.5" font-family="Arial ItalicMT" font-size="10.00" fill="#999999">string</text>
<text text-anchor="start" x="387.5" y="-707.5" font-family="ArialMT" font-size="10.00">description </text>
<text text-anchor="start" x="438.638" y="-707.5" font-family="Arial ItalicMT" font-size="10.00" fill="#999999">text</text>
<text text-anchor="start" x="387.5" y="-694.5" font-family="ArialMT" font-size="10.00">dimension </text>
<text text-anchor="start" x="435.859" y="-694.5" font-family="Arial ItalicMT" font-size="10.00" fill="#999999">string</text>
<text text-anchor="start" x="387.5" y="-681.5" font-family="ArialMT" font-size="10.00">duration </text>
<text text-anchor="start" x="426.416" y="-681.5" font-family="Arial ItalicMT" font-size="10.00" fill="#999999">string</text>
<text text-anchor="start" x="387.5" y="-668.5" font-family="ArialMT" font-size="10.00">embeddable </text>
<text text-anchor="start" x="445.322" y="-668.5" font-family="Arial ItalicMT" font-size="10.00" fill="#999999">boolean</text>
<text text-anchor="start" x="387.5" y="-655.5" font-family="ArialMT" font-size="10.00">etag </text>
<text text-anchor="start" x="409.741" y="-655.5" font-family="Arial ItalicMT" font-size="10.00" fill="#999999">string</text>
<text text-anchor="start" x="387.5" y="-642.5" font-family="ArialMT" font-size="10.00">id </text>
<text text-anchor="start" x="398.062" y="-642.5" font-family="Arial ItalicMT" font-size="10.00" fill="#999999">string PK</text>
<text text-anchor="start" x="387.5" y="-629.5" font-family="ArialMT" font-size="10.00">license </text>
<text text-anchor="start" x="421.406" y="-629.5" font-family="Arial ItalicMT" font-size="10.00" fill="#999999">string</text>
<text text-anchor="start" x="387.5" y="-616.5" font-family="ArialMT" font-size="10.00">licensed_content </text>
<text text-anchor="start" x="465.332" y="-616.5" font-family="Arial ItalicMT" font-size="10.00" fill="#999999">boolean</text>
<text text-anchor="start" x="387.5" y="-603.5" font-family="ArialMT" font-size="10.00">live_broadcast_content </text>
<text text-anchor="start" x="493.125" y="-603.5" font-family="Arial ItalicMT" font-size="10.00" fill="#999999">text</text>
<text text-anchor="start" x="387.5" y="-590.5" font-family="ArialMT" font-size="10.00">player_html </text>
<text text-anchor="start" x="441.968" y="-590.5" font-family="Arial ItalicMT" font-size="10.00" fill="#999999">text</text>
<text text-anchor="start" x="387.5" y="-577.5" font-family="ArialMT" font-size="10.00">privacy_status </text>
<text text-anchor="start" x="454.194" y="-577.5" font-family="Arial ItalicMT" font-size="10.00" fill="#999999">string</text>
<text text-anchor="start" x="387.175" y="-564.5" font-family="ArialMT" font-size="10.00">public_stats_viewable </text>
<text text-anchor="start" x="487.234" y="-564.5" font-family="Arial ItalicMT" font-size="10.00" fill="#999999">boolean</text>
<text text-anchor="start" x="387.5" y="-551.5" font-family="ArialMT" font-size="10.00">published_at </text>
<text text-anchor="start" x="446.992" y="-551.5" font-family="Arial ItalicMT" font-size="10.00" fill="#999999">datetime</text>
<text text-anchor="start" x="387.5" y="-538.5" font-family="ArialMT" font-size="10.00">relevant_topic_ids </text>
<text text-anchor="start" x="470.884" y="-538.5" font-family="Arial ItalicMT" font-size="10.00" fill="#999999">text</text>
<text text-anchor="start" x="387.5" y="-525.5" font-family="ArialMT" font-size="10.00">tags </text>
<text text-anchor="start" x="409.18" y="-525.5" font-family="Arial ItalicMT" font-size="10.00" fill="#999999">text</text>
<text text-anchor="start" x="387.5" y="-512.5" font-family="ArialMT" font-size="10.00">thumbnails </text>
<text text-anchor="start" x="438.638" y="-512.5" font-family="Arial ItalicMT" font-size="10.00" fill="#999999">text</text>
<text text-anchor="start" x="387.5" y="-499.5" font-family="ArialMT" font-size="10.00">title </text>
<text text-anchor="start" x="405.84" y="-499.5" font-family="Arial ItalicMT" font-size="10.00" fill="#999999">string</text>
<text text-anchor="start" x="387.5" y="-486.5" font-family="ArialMT" font-size="10.00">topic_ids </text>
<text text-anchor="start" x="429.746" y="-486.5" font-family="Arial ItalicMT" font-size="10.00" fill="#999999">text</text>
<text text-anchor="start" x="387.5" y="-473.5" font-family="ArialMT" font-size="10.00">upload_status </text>
<text text-anchor="start" x="452.549" y="-473.5" font-family="Arial ItalicMT" font-size="10.00" fill="#999999">string</text>
</g>
<!-- m_Source&#45;&gt;m_YoutubeVideo -->
<g id="edge2" class="edge"><title>m_Source&#45;&gt;m_YoutubeVideo</title>
<path fill="none" stroke="#999999" d="M319.534,-574.554C338.385,-582.075 359.673,-590.568 379.639,-598.533"/>
<polygon fill="none" stroke="#999999" points="320.848,-570.557 308.146,-570.011 317.735,-578.359 320.848,-570.557"/>
</g>
<!-- m_Video&#45;&gt;m_RatingSubmission -->
<g id="edge9" class="edge"><title>m_Video&#45;&gt;m_RatingSubmission</title>
<path fill="none" stroke="black" d="M524.756,-339.944C536.697,-331.831 549.172,-323.354 561.296,-315.117"/>
<polygon fill="black" stroke="black" points="563.118,-317.687 568.792,-310.024 559.577,-312.476 563.118,-317.687"/>
</g>
<!-- m_Viewer -->
<g id="node12" class="node"><title>m_Viewer</title>
<path fill="none" stroke="black" d="M192,-0.5C192,-0.5 332,-0.5 332,-0.5 338,-0.5 344,-6.5 344,-12.5 344,-12.5 344,-251.5 344,-251.5 344,-257.5 338,-263.5 332,-263.5 332,-263.5 192,-263.5 192,-263.5 186,-263.5 180,-257.5 180,-251.5 180,-251.5 180,-12.5 180,-12.5 180,-6.5 186,-0.5 192,-0.5"/>
<text text-anchor="start" x="243.285" y="-250.2" font-family="Arial BoldMT" font-size="11.00">Viewer</text>
<polyline fill="none" stroke="black" points="180,-244.5 344,-244.5 "/>
<text text-anchor="start" x="187" y="-231.5" font-family="ArialMT" font-size="10.00">confirmation_sent_at </text>
<text text-anchor="start" x="282.61" y="-231.5" font-family="Arial ItalicMT" font-size="10.00" fill="#999999">datetime</text>
<text text-anchor="start" x="187" y="-218.5" font-family="ArialMT" font-size="10.00">confirmation_token </text>
<text text-anchor="start" x="274.271" y="-218.5" font-family="Arial ItalicMT" font-size="10.00" fill="#999999">string</text>
<text text-anchor="start" x="187" y="-205.5" font-family="ArialMT" font-size="10.00">confirmed_at </text>
<text text-anchor="start" x="247.586" y="-205.5" font-family="Arial ItalicMT" font-size="10.00" fill="#999999">datetime</text>
<text text-anchor="start" x="187" y="-192.5" font-family="ArialMT" font-size="10.00">current_sign_in_at </text>
<text text-anchor="start" x="272.054" y="-192.5" font-family="Arial ItalicMT" font-size="10.00" fill="#999999">datetime</text>
<text text-anchor="start" x="187" y="-179.5" font-family="ArialMT" font-size="10.00">current_sign_in_ip </text>
<text text-anchor="start" x="271.497" y="-179.5" font-family="Arial ItalicMT" font-size="10.00" fill="#999999">inet</text>
<text text-anchor="start" x="187" y="-166.5" font-family="ArialMT" font-size="10.00">email </text>
<text text-anchor="start" x="213.675" y="-166.5" font-family="Arial ItalicMT" font-size="10.00" fill="#999999">string ∗ U</text>
<text text-anchor="start" x="187" y="-153.5" font-family="ArialMT" font-size="10.00">encrypted_password </text>
<text text-anchor="start" x="282.054" y="-153.5" font-family="Arial ItalicMT" font-size="10.00" fill="#999999">string ∗</text>
<text text-anchor="start" x="187" y="-140.5" font-family="ArialMT" font-size="10.00">failed_attempts </text>
<text text-anchor="start" x="257.596" y="-140.5" font-family="Arial ItalicMT" font-size="10.00" fill="#999999">integer ∗</text>
<text text-anchor="start" x="187" y="-127.5" font-family="ArialMT" font-size="10.00">id </text>
<text text-anchor="start" x="197.562" y="-127.5" font-family="Arial ItalicMT" font-size="10.00" fill="#999999">integer PK</text>
<text text-anchor="start" x="187" y="-114.5" font-family="ArialMT" font-size="10.00">last_sign_in_at </text>
<text text-anchor="start" x="256.492" y="-114.5" font-family="Arial ItalicMT" font-size="10.00" fill="#999999">datetime</text>
<text text-anchor="start" x="187" y="-101.5" font-family="ArialMT" font-size="10.00">last_sign_in_ip </text>
<text text-anchor="start" x="255.936" y="-101.5" font-family="Arial ItalicMT" font-size="10.00" fill="#999999">inet</text>
<text text-anchor="start" x="187" y="-88.5" font-family="ArialMT" font-size="10.00">locked_at </text>
<text text-anchor="start" x="232.586" y="-88.5" font-family="Arial ItalicMT" font-size="10.00" fill="#999999">datetime</text>
<text text-anchor="start" x="187" y="-75.5" font-family="ArialMT" font-size="10.00">remember_created_at </text>
<text text-anchor="start" x="288.162" y="-75.5" font-family="Arial ItalicMT" font-size="10.00" fill="#999999">datetime</text>
<text text-anchor="start" x="186.956" y="-62.5" font-family="ArialMT" font-size="10.00">reset_password_sent_at </text>
<text text-anchor="start" x="298.689" y="-62.5" font-family="Arial ItalicMT" font-size="10.00" fill="#999999">datetime</text>
<text text-anchor="start" x="187" y="-49.5" font-family="ArialMT" font-size="10.00">reset_password_token </text>
<text text-anchor="start" x="290.394" y="-49.5" font-family="Arial ItalicMT" font-size="10.00" fill="#999999">string</text>
<text text-anchor="start" x="187" y="-36.5" font-family="ArialMT" font-size="10.00">sign_in_count </text>
<text text-anchor="start" x="251.492" y="-36.5" font-family="Arial ItalicMT" font-size="10.00" fill="#999999">integer ∗</text>
<text text-anchor="start" x="187" y="-23.5" font-family="ArialMT" font-size="10.00">unconfirmed_email </text>
<text text-anchor="start" x="274.266" y="-23.5" font-family="Arial ItalicMT" font-size="10.00" fill="#999999">string</text>
<text text-anchor="start" x="187" y="-10.5" font-family="ArialMT" font-size="10.00">unlock_token </text>
<text text-anchor="start" x="248.709" y="-10.5" font-family="Arial ItalicMT" font-size="10.00" fill="#999999">string</text>
</g>
<!-- m_Viewer&#45;&gt;m_Session -->
<g id="edge3" class="edge"><title>m_Viewer&#45;&gt;m_Session</title>
<path fill="none" stroke="black" d="M344.065,-132C353.735,-132 363.604,-132 373.262,-132"/>
<polygon fill="black" stroke="black" points="373.443,-135.15 382.443,-132 373.443,-128.85 373.443,-135.15"/>
</g>
<!-- m_YoutubeChannelMeasure -->
<g id="node14" class="node"><title>m_YoutubeChannelMeasure</title>
<path fill="none" stroke="black" d="M394.5,-1012C394.5,-1012 514.5,-1012 514.5,-1012 520.5,-1012 526.5,-1018 526.5,-1024 526.5,-1024 526.5,-1120 526.5,-1120 526.5,-1126 520.5,-1132 514.5,-1132 514.5,-1132 394.5,-1132 394.5,-1132 388.5,-1132 382.5,-1126 382.5,-1120 382.5,-1120 382.5,-1024 382.5,-1024 382.5,-1018 388.5,-1012 394.5,-1012"/>
<text text-anchor="start" x="390.628" y="-1118.7" font-family="Arial BoldMT" font-size="11.00">YoutubeChannelMeasure</text>
<polyline fill="none" stroke="black" points="382.5,-1113 526.5,-1113 "/>
<text text-anchor="start" x="389.5" y="-1099.5" font-family="ArialMT" font-size="10.00">channel_id </text>
<text text-anchor="start" x="440.652" y="-1099.5" font-family="Arial ItalicMT" font-size="10.00" fill="#999999">string ∗ FK</text>
<text text-anchor="start" x="389.5" y="-1086.5" font-family="ArialMT" font-size="10.00">comment_count </text>
<text text-anchor="start" x="463.426" y="-1086.5" font-family="Arial ItalicMT" font-size="10.00" fill="#999999">integer</text>
<text text-anchor="start" x="389.18" y="-1073.5" font-family="ArialMT" font-size="10.00">hidden_subscriber_count </text>
<text text-anchor="start" x="503.702" y="-1073.5" font-family="Arial ItalicMT" font-size="10.00" fill="#999999">text</text>
<text text-anchor="start" x="389.5" y="-1060.5" font-family="ArialMT" font-size="10.00">id </text>
<text text-anchor="start" x="400.062" y="-1060.5" font-family="Arial ItalicMT" font-size="10.00" fill="#999999">integer PK</text>
<text text-anchor="start" x="389.5" y="-1047.5" font-family="ArialMT" font-size="10.00">subscriber_count </text>
<text text-anchor="start" x="468.431" y="-1047.5" font-family="Arial ItalicMT" font-size="10.00" fill="#999999">integer</text>
<text text-anchor="start" x="389.5" y="-1034.5" font-family="ArialMT" font-size="10.00">video_count </text>
<text text-anchor="start" x="446.209" y="-1034.5" font-family="Arial ItalicMT" font-size="10.00" fill="#999999">integer</text>
<text text-anchor="start" x="389.5" y="-1021.5" font-family="ArialMT" font-size="10.00">view_count </text>
<text text-anchor="start" x="442.308" y="-1021.5" font-family="Arial ItalicMT" font-size="10.00" fill="#999999">integer</text>
</g>
<!-- m_YoutubeChannel&#45;&gt;m_YoutubeChannelMeasure -->
<g id="edge14" class="edge"><title>m_YoutubeChannel&#45;&gt;m_YoutubeChannelMeasure</title>
<path fill="none" stroke="black" d="M334.206,-965.543C348.961,-978.711 364.54,-992.613 379.395,-1005.87"/>
<polygon fill="black" stroke="black" points="377.352,-1008.27 386.165,-1011.91 381.547,-1003.57 377.352,-1008.27"/>
</g>
<!-- m_YoutubePlaylist -->
<g id="node15" class="node"><title>m_YoutubePlaylist</title>
<path fill="none" stroke="black" d="M394.5,-822.5C394.5,-822.5 514.5,-822.5 514.5,-822.5 520.5,-822.5 526.5,-828.5 526.5,-834.5 526.5,-834.5 526.5,-969.5 526.5,-969.5 526.5,-975.5 520.5,-981.5 514.5,-981.5 514.5,-981.5 394.5,-981.5 394.5,-981.5 388.5,-981.5 382.5,-975.5 382.5,-969.5 382.5,-969.5 382.5,-834.5 382.5,-834.5 382.5,-828.5 388.5,-822.5 394.5,-822.5"/>
<text text-anchor="start" x="415.093" y="-968.2" font-family="Arial BoldMT" font-size="11.00">YoutubePlaylist</text>
<polyline fill="none" stroke="black" points="382.5,-962.5 526.5,-962.5 "/>
<text text-anchor="start" x="389.5" y="-949.5" font-family="ArialMT" font-size="10.00">channel_id </text>
<text text-anchor="start" x="440.652" y="-949.5" font-family="Arial ItalicMT" font-size="10.00" fill="#999999">string FK</text>
<text text-anchor="start" x="389.5" y="-936.5" font-family="ArialMT" font-size="10.00">description </text>
<text text-anchor="start" x="440.638" y="-936.5" font-family="Arial ItalicMT" font-size="10.00" fill="#999999">text</text>
<text text-anchor="start" x="389.5" y="-923.5" font-family="ArialMT" font-size="10.00">etag </text>
<text text-anchor="start" x="411.741" y="-923.5" font-family="Arial ItalicMT" font-size="10.00" fill="#999999">string</text>
<text text-anchor="start" x="389.5" y="-910.5" font-family="ArialMT" font-size="10.00">id </text>
<text text-anchor="start" x="400.062" y="-910.5" font-family="Arial ItalicMT" font-size="10.00" fill="#999999">string PK</text>
<text text-anchor="start" x="389.5" y="-897.5" font-family="ArialMT" font-size="10.00">player_html </text>
<text text-anchor="start" x="443.968" y="-897.5" font-family="Arial ItalicMT" font-size="10.00" fill="#999999">text</text>
<text text-anchor="start" x="389.5" y="-884.5" font-family="ArialMT" font-size="10.00">privacy_status </text>
<text text-anchor="start" x="456.194" y="-884.5" font-family="Arial ItalicMT" font-size="10.00" fill="#999999">string</text>
<text text-anchor="start" x="389.5" y="-871.5" font-family="ArialMT" font-size="10.00">published_at </text>
<text text-anchor="start" x="448.992" y="-871.5" font-family="Arial ItalicMT" font-size="10.00" fill="#999999">datetime</text>
<text text-anchor="start" x="389.5" y="-858.5" font-family="ArialMT" font-size="10.00">size </text>
<text text-anchor="start" x="410.062" y="-858.5" font-family="Arial ItalicMT" font-size="10.00" fill="#999999">integer</text>
<text text-anchor="start" x="389.5" y="-845.5" font-family="ArialMT" font-size="10.00">thumbnails </text>
<text text-anchor="start" x="440.638" y="-845.5" font-family="Arial ItalicMT" font-size="10.00" fill="#999999">text</text>
<text text-anchor="start" x="389.5" y="-832.5" font-family="ArialMT" font-size="10.00">title </text>
<text text-anchor="start" x="407.84" y="-832.5" font-family="Arial ItalicMT" font-size="10.00" fill="#999999">string</text>
</g>
<!-- m_YoutubeChannel&#45;&gt;m_YoutubePlaylist -->
<g id="edge15" class="edge"><title>m_YoutubeChannel&#45;&gt;m_YoutubePlaylist</title>
<path fill="none" stroke="black" d="M334.206,-902C346.877,-902 360.156,-902 373.062,-902"/>
<polygon fill="black" stroke="black" points="373.38,-905.15 382.38,-902 373.38,-898.85 373.38,-905.15"/>
</g>
<!-- m_YoutubeChannel&#45;&gt;m_YoutubeVideo -->
<g id="edge16" class="edge"><title>m_YoutubeChannel&#45;&gt;m_YoutubeVideo</title>
<path fill="none" stroke="black" d="M318.356,-822.38C335.929,-797.105 355.712,-768.65 374.61,-741.469"/>
<polygon fill="black" stroke="black" points="377.363,-743.028 379.914,-733.84 372.19,-739.431 377.363,-743.028"/>
</g>
<!-- m_YoutubePlaylistItem -->
<g id="node16" class="node"><title>m_YoutubePlaylistItem</title>
<path fill="none" stroke="black" d="M579,-770.5C579,-770.5 699,-770.5 699,-770.5 705,-770.5 711,-776.5 711,-782.5 711,-782.5 711,-917.5 711,-917.5 711,-923.5 705,-929.5 699,-929.5 699,-929.5 579,-929.5 579,-929.5 573,-929.5 567,-923.5 567,-917.5 567,-917.5 567,-782.5 567,-782.5 567,-776.5 573,-770.5 579,-770.5"/>
<text text-anchor="start" x="588.896" y="-916.2" font-family="Arial BoldMT" font-size="11.00">YoutubePlaylistItem</text>
<polyline fill="none" stroke="black" points="567,-910.5 711,-910.5 "/>
<text text-anchor="start" x="574" y="-897.5" font-family="ArialMT" font-size="10.00">description </text>
<text text-anchor="start" x="625.138" y="-897.5" font-family="Arial ItalicMT" font-size="10.00" fill="#999999">text</text>
<text text-anchor="start" x="574" y="-884.5" font-family="ArialMT" font-size="10.00">etag </text>
<text text-anchor="start" x="596.241" y="-884.5" font-family="Arial ItalicMT" font-size="10.00" fill="#999999">string</text>
<text text-anchor="start" x="574" y="-871.5" font-family="ArialMT" font-size="10.00">id </text>
<text text-anchor="start" x="584.562" y="-871.5" font-family="Arial ItalicMT" font-size="10.00" fill="#999999">string PK</text>
<text text-anchor="start" x="574" y="-858.5" font-family="ArialMT" font-size="10.00">playlist_id </text>
<text text-anchor="start" x="620.689" y="-858.5" font-family="Arial ItalicMT" font-size="10.00" fill="#999999">string FK</text>
<text text-anchor="start" x="574" y="-845.5" font-family="ArialMT" font-size="10.00">privacy_status </text>
<text text-anchor="start" x="640.694" y="-845.5" font-family="Arial ItalicMT" font-size="10.00" fill="#999999">string</text>
<text text-anchor="start" x="574" y="-832.5" font-family="ArialMT" font-size="10.00">published_at </text>
<text text-anchor="start" x="633.492" y="-832.5" font-family="Arial ItalicMT" font-size="10.00" fill="#999999">datetime</text>
<text text-anchor="start" x="574" y="-819.5" font-family="ArialMT" font-size="10.00">resource_id </text>
<text text-anchor="start" x="629.029" y="-819.5" font-family="Arial ItalicMT" font-size="10.00" fill="#999999">string</text>
<text text-anchor="start" x="574" y="-806.5" font-family="ArialMT" font-size="10.00">resource_type </text>
<text text-anchor="start" x="640.147" y="-806.5" font-family="Arial ItalicMT" font-size="10.00" fill="#999999">string</text>
<text text-anchor="start" x="574" y="-793.5" font-family="ArialMT" font-size="10.00">thumbnails </text>
<text text-anchor="start" x="625.138" y="-793.5" font-family="Arial ItalicMT" font-size="10.00" fill="#999999">text</text>
<text text-anchor="start" x="574" y="-780.5" font-family="ArialMT" font-size="10.00">title </text>
<text text-anchor="start" x="592.34" y="-780.5" font-family="Arial ItalicMT" font-size="10.00" fill="#999999">string</text>
</g>
<!-- m_YoutubePlaylist&#45;&gt;m_YoutubePlaylistItem -->
<g id="edge17" class="edge"><title>m_YoutubePlaylist&#45;&gt;m_YoutubePlaylistItem</title>
<path fill="none" stroke="black" d="M526.582,-881.747C536.903,-878.806 547.587,-875.762 558.068,-872.775"/>
<polygon fill="black" stroke="black" points="559.02,-875.779 566.812,-870.284 557.293,-869.721 559.02,-875.779"/>
</g>
<!-- m_YoutubeVideo&#45;&gt;m_YoutubePlaylistItem -->
<g id="edge18" class="edge"><title>m_YoutubeVideo&#45;&gt;m_YoutubePlaylistItem</title>
<path fill="none" stroke="black" d="M529.204,-717.656C541.531,-732.651 554.302,-748.187 566.571,-763.111"/>
<polygon fill="black" stroke="black" points="564.401,-765.431 572.549,-770.383 569.267,-761.431 564.401,-765.431"/>
</g>
<!-- m_YoutubeVideoMeasure -->
<g id="node18" class="node"><title>m_YoutubeVideoMeasure</title>
<path fill="none" stroke="black" d="M579,-568C579,-568 699,-568 699,-568 705,-568 711,-574 711,-580 711,-580 711,-676 711,-676 711,-682 705,-688 699,-688 699,-688 579,-688 579,-688 573,-688 567,-682 567,-676 567,-676 567,-580 567,-580 567,-574 573,-568 579,-568"/>
<text text-anchor="start" x="581.646" y="-674.7" font-family="Arial BoldMT" font-size="11.00">YoutubeVideoMeasure</text>
<polyline fill="none" stroke="black" points="567,-669 711,-669 "/>
<text text-anchor="start" x="574" y="-655.5" font-family="ArialMT" font-size="10.00">comment_count </text>
<text text-anchor="start" x="647.926" y="-655.5" font-family="Arial ItalicMT" font-size="10.00" fill="#999999">integer</text>
<text text-anchor="start" x="574" y="-642.5" font-family="ArialMT" font-size="10.00">dislike_count </text>
<text text-anchor="start" x="634.591" y="-642.5" font-family="Arial ItalicMT" font-size="10.00" fill="#999999">integer</text>
<text text-anchor="start" x="574" y="-629.5" font-family="ArialMT" font-size="10.00">favorite_count </text>
<text text-anchor="start" x="639.596" y="-629.5" font-family="Arial ItalicMT" font-size="10.00" fill="#999999">integer</text>
<text text-anchor="start" x="574" y="-616.5" font-family="ArialMT" font-size="10.00">id </text>
<text text-anchor="start" x="584.562" y="-616.5" font-family="Arial ItalicMT" font-size="10.00" fill="#999999">integer PK</text>
<text text-anchor="start" x="574" y="-603.5" font-family="ArialMT" font-size="10.00">like_count </text>
<text text-anchor="start" x="621.808" y="-603.5" font-family="Arial ItalicMT" font-size="10.00" fill="#999999">integer</text>
<text text-anchor="start" x="574" y="-590.5" font-family="ArialMT" font-size="10.00">video_id </text>
<text text-anchor="start" x="614.029" y="-590.5" font-family="Arial ItalicMT" font-size="10.00" fill="#999999">string ∗ FK</text>
<text text-anchor="start" x="574" y="-577.5" font-family="ArialMT" font-size="10.00">view_count </text>
<text text-anchor="start" x="626.808" y="-577.5" font-family="Arial ItalicMT" font-size="10.00" fill="#999999">integer</text>
</g>
<!-- m_YoutubeVideo&#45;&gt;m_YoutubeVideoMeasure -->
<g id="edge19" class="edge"><title>m_YoutubeVideo&#45;&gt;m_YoutubeVideoMeasure</title>
<path fill="none" stroke="black" d="M529.204,-628C538.65,-628 548.356,-628 557.898,-628"/>
<polygon fill="black" stroke="black" points="557.982,-631.15 566.981,-628 557.981,-624.85 557.982,-631.15"/>
</g>
</g>
</svg>
